#!OML:ASF H:\Terrain\Patient Classification 1\Takeo\Monday\TakeoMonday.ASF
:FULLY-SPECIFIED
:DEGREES
166
root 11.05 15.7926 -3.31266 32.5817 -20.3095 11.557
lowerback 50.8268 -3.32959 14.4522
upperback 12.0128 2.621 -1.03656
thorax -6.16845 1.45109 -8.72865
lowerneck -8.28831 -7.94725 -1.46675
upperneck 7.98691 -10.7999 4.17225
head 4.4861 -5.12482 0.944513
rclavicle -1.90833e-014 -2.14687e-014
rhumerus 28.8434 17.9416 -42.4227
rradius 41.4265
rwrist -11.7995
rhand -24.7241 28.9379
rfingers 7.12502
rthumb 1.778 -1.03447
lclavicle -1.90833e-014 -2.14687e-014
lhumerus -21.9906 -12.073 87.2455
lradius 73.2003
lwrist 44.1467
lhand -21.9361 13.3533
lfingers 7.12502
lthumb 4.47043 43.2861
rfemur -80.3159 -1.11489 0.425612
rtibia 62.9289
rfoot -15.0343 -11.5351
rtoes -7.62649
lfemur -75.4087 10.235 -49.2277
ltibia 56.8574
lfoot -16.2605 5.22436
ltoes -1.05389
167
root 11.0597 15.7961 -3.33187 32.8982 -19.8995 11.8149
lowerback 49.3055 -3.25567 14.5405
upperback 12.2289 2.52808 -0.866608
thorax -5.74071 1.44264 -8.58098
lowerneck -8.00348 -8.00662 -1.48877
upperneck 7.69031 -10.8896 4.44305
head 4.34615 -5.16755 1.04907
rclavicle -3.49861e-014 -6.48038e-014
rhumerus 28.5621 18.0355 -42.6529
rradius 41.7311
rwrist -11.58
rhand -24.3196 28.9421
rfingers 7.12502
rthumb 2.16872 -1.02662
lclavicle -3.49861e-014 -6.48038e-014
lhumerus -21.8265 -12.2674 87.3971
lradius 73.0973
lwrist 43.9785
lhand -22.0027 13.6807
lfingers 7.12502
lthumb 4.40613 43.6149
rfemur -80.4576 -1.68789 0.384434
rtibia 62.4968
rfoot -14.6995 -11.5423
rtoes -6.99133
lfemur -75.4834 9.53849 -49.2543
ltibia 56.4602
lfoot -15.9984 5.25885
ltoes -0.576672
168
root 11.0617 15.8362 -3.33052 32.6809 -19.9986 11.4244
lowerback 48.9221 -3.08683 14.3986
upperback 12.3801 2.58806 -0.751108
thorax -5.52599 1.47795 -8.42225
lowerneck -7.88916 -7.90466 -1.59222
upperneck 7.58109 -10.7589 4.67383
head 4.30399 -5.10035 1.15902
rclavicle 7.95139e-014 -1.63003e-014
rhumerus 28.2533 18.5369 -42.7393
rradius 42.3882
rwrist -11.5583
rhand -24.1251 29.3
rfingers 7.12502
rthumb 2.35658 -0.666759
lclavicle 7.95139e-014 -1.63003e-014
lhumerus -21.6608 -11.8219 87.5774
lradius 72.8363
lwrist 43.732
lhand -22.3858 13.5568
lfingers 7.12502
lthumb 4.03619 43.4983
rfemur -79.844 -1.32328 0.75067
rtibia 61.9299
rfoot -14.6082 -11.4556
rtoes -7.35441
lfemur -75.0184 9.86909 -48.7963
ltibia 56.0728
lfoot -15.9486 5.36029
ltoes -0.685958
169
root 11.0619 15.8713 -3.333 32.3992 -20.1264 11.1348
lowerback 48.5529 -2.91025 14.0612
upperback 12.5215 2.57514 -0.642174
thorax -5.35685 1.47289 -8.15711
lowerneck -7.97763 -7.77341 -1.95051
upperneck 7.72633 -10.5896 5.10586
head 4.42558 -5.00263 1.37036
rclavicle -2.54444e-014 -9.44227e-015
rhumerus 27.9115 19.2432 -42.7774
rradius 43.3624
rwrist -11.6176
rhand -24.3921 29.2322
rfingers 7.12502
rthumb 2.0987 -0.737224
lclavicle -2.54444e-014 -9.44227e-015
lhumerus -21.628 -11.1626 87.5827
lradius 72.825
lwrist 44.2803
lhand -22.4158 13.4601
lfingers 7.12502
lthumb 4.00722 43.4022
rfemur -79.2333 -0.925071 0.958841
rtibia 61.3927
rfoot -14.3274 -11.5627
rtoes -7.87937
lfemur -74.539 10.1625 -48.3954
ltibia 55.7142
lfoot -15.8091 5.5168
ltoes -1.01311
170
root 11.0684 15.9065 -3.33103 32.0153 -20.1179 11.0755
lowerback 48.0797 -2.93019 13.9196
upperback 12.7127 2.4044 -0.624789
thorax -5.11826 1.41528 -8.01826
lowerneck -8.11634 -7.67125 -2.4411
upperneck 8.199 -10.4895 5.89261
head 4.22157 -4.90585 1.53222
rclavicle -3.81667e-014 -2.80286e-014
rhumerus 27.7265 19.7287 -42.9213
rradius 44.0623
rwrist -11.4459
rhand -24.4119 29.1268
rfingers 7.12502
rthumb 2.0796 -0.842765
lclavicle -3.81667e-014 -2.80286e-014
lhumerus -21.5368 -10.6285 87.4294
lradius 72.9604
lwrist 44.9086
lhand -21.8311 13.9711
lfingers 7.12502
lthumb 4.57186 43.9018
rfemur -78.4591 -0.770232 1.01625
rtibia 60.7571
rfoot -14.0028 -11.6592
rtoes -7.87365
lfemur -73.8839 10.2612 -48.1313
ltibia 55.3303
lfoot -15.6855 5.65544
ltoes -0.390079
171
root 11.0737 15.9579 -3.32796 31.6053 -20.1167 10.7492
lowerback 47.9323 -3.20778 13.8531
upperback 12.8724 2.01273 -0.672681
thorax -4.98903 1.25013 -7.89008
lowerneck -8.80224 -7.44112 -3.07491
upperneck 8.73905 -10.1654 6.22771
head 4.53679 -4.72389 1.71733
rclavicle -2.22639e-014 1.93815e-014
rhumerus 28.4671 20.7103 -42.6101
rradius 44.4677
rwrist -11.5416
rhand -24.5775 29.7326
rfingers 7.12502
rthumb 1.91962 -0.238553
lclavicle -2.22639e-014 1.93815e-014
lhumerus -21.3067 -9.47189 87.2313
lradius 72.8265
lwrist 44.6316
lhand -21.3451 13.8445
lfingers 7.12502
lthumb 5.0411 43.7645
rfemur -77.5757 -0.47016 1.34811
rtibia 60.1295
rfoot -13.8544 -11.6371
rtoes -7.13094
lfemur -73.1022 10.5547 -47.6357
ltibia 54.8433
lfoot -15.5103 5.80957
ltoes 0.623168
172
root 11.0683 16.01 -3.32975 31.1899 -20.6615 10.1097
lowerback 48.2717 -3.49945 12.9562
upperback 12.927 1.29334 -0.825862
thorax -5.17698 0.888593 -7.37013
lowerneck -9.76619 -6.78626 -4.33792
upperneck 9.55468 -9.19442 6.6019
head 4.97832 -4.23742 2.05915
rclavicle 3.81667e-014 -2.67862e-014
rhumerus 30.6284 22.8526 -41.9783
rradius 44.8961
rwrist -11.9939
rhand -24.9742 30.3689
rfingers 7.12502
rthumb 1.53648 0.39473
lclavicle 3.81667e-014 -2.67862e-014
lhumerus -21.3988 -6.86018 86.8148
lradius 72.6737
lwrist 44.0591
lhand -21.4604 13.2446
lfingers 7.12502
lthumb 4.92984 43.1673
rfemur -76.7568 0.402102 1.76409
rtibia 59.3237
rfoot -13.5638 -11.497
rtoes -6.59125
lfemur -72.5162 11.4665 -47.1563
ltibia 54.5345
lfoot -15.4637 6.04904
ltoes 0.76651
173
root 11.089 16.0458 -3.31726 30.7409 -19.8839 10.5409
lowerback 47.3214 -3.97399 13.4442
upperback 13.092 0.844228 -0.796547
thorax -4.87826 0.725299 -7.40572
lowerneck -9.54187 -6.76667 -4.48268
upperneck 9.55784 -9.21632 7.14942
head 4.97715 -4.2238 2.25495
rclavicle 6.36111e-015 -4.67144e-014
rhumerus 29.921 23.1151 -42.5903
rradius 45.5571
rwrist -11.5062
rhand -24.9982 30.3687
rfingers 7.12502
rthumb 1.51333 0.39436
lclavicle 6.36111e-015 -4.67144e-014
lhumerus -21.3596 -6.61837 86.961
lradius 72.5074
lwrist 44.093
lhand -21.6954 13.6541
lfingers 7.12502
lthumb 4.70285 43.5819
rfemur -75.8005 -0.350247 1.71656
rtibia 58.7778
rfoot -13.5434 -11.4372
rtoes -6.9159
lfemur -71.4488 10.6495 -46.9275
ltibia 53.9099
lfoot -15.1707 6.32139
ltoes -0.278072
174
root 11.0501 16.0948 -3.33733 30.6909 -22.5324 8.85709
lowerback 48.2684 -1.86466 11.1521
upperback 13.0889 2.31098 -0.633631
thorax -5.01327 1.29137 -6.74825
lowerneck -9.65101 -6.69562 -4.93895
upperneck 9.70204 -9.14887 7.86962
head 5.09258 -4.15808 2.54884
rclavicle 8.26944e-014 1.62693e-014
rhumerus 29.6525 23.5275 -42.8347
rradius 46.1567
rwrist -11.2762
rhand -24.965 30.5008
rfingers 7.12502
rthumb 1.5454 0.526667
lclavicle 8.26944e-014 1.62693e-014
lhumerus -21.1793 -5.91586 87.1171
lradius 72.4237
lwrist 43.8084
lhand -21.3027 14.1768
lfingers 7.12502
lthumb 5.08205 44.0959
rfemur -75.8328 2.5466 2.27602
rtibia 57.9396
rfoot -12.9406 -11.2113
rtoes -8.1523
lfemur -71.8016 13.6645 -46.6239
ltibia 53.577
lfoot -15.2981 6.43958
ltoes -0.368774
175
root 11.1001 16.144 -3.31242 29.856 -19.9512 10.3372
lowerback 46.7264 -3.71334 13.1219
upperback 13.3501 0.910948 -0.617945
thorax -4.51466 0.765985 -7.10975
lowerneck -9.79095 -6.78238 -4.74668
upperneck 9.85742 -9.30486 7.92973
head 5.1687 -4.21559 2.51737
rclavicle 1.27222e-014 -2.58172e-014
rhumerus 29.0901 23.8214 -42.8353
rradius 46.7726
rwrist -11.4063
rhand -24.9876 30.716
rfingers 7.12502
rthumb 1.52356 0.741645
lclavicle 1.27222e-014 -2.58172e-014
lhumerus -21.0649 -6.11551 87.3516
lradius 72.2754
lwrist 43.1763
lhand -20.7871 14.2628
lfingers 7.12502
lthumb 5.57992 44.1693
rfemur -74.1555 0.0410986 1.95609
rtibia 57.5682
rfoot -13.0389 -11.5431
rtoes -8.10765
lfemur -69.8411 10.9578 -46.2993
ltibia 52.7556
lfoot -14.9464 6.61735
ltoes -0.253184
176
root 11.098 16.1905 -3.30362 29.5332 -19.9136 10.141
lowerback 45.2628 -3.26065 12.9772
upperback 14.4095 1.08141 -0.153527
thorax -4.20012 0.868882 -7.0776
lowerneck -9.67144 -6.87023 -4.35925
upperneck 9.79111 -9.45669 7.77647
head 5.11204 -4.28846 2.4005
rclavicle 4.45278e-014 -1.92324e-014
rhumerus 28.4703 24.1305 -42.6493
rradius 47.4261
rwrist -11.7239
rhand -24.5808 29.8696
rfingers 7.12502
rthumb 1.91642 -0.101557
lclavicle 4.45278e-014 -1.92324e-014
lhumerus -20.9775 -6.65047 87.5861
lradius 72.0733
lwrist 42.9348
lhand -20.9975 14.4369
lfingers 7.12502
lthumb 5.37671 44.3487
rfemur -73.3322 0.246974 2.19608
rtibia 56.9413
rfoot -12.7599 -11.5889
rtoes -7.9656
lfemur -69.1556 11.1174 -45.9056
ltibia 52.3051
lfoot -14.8222 6.75815
ltoes -0.535303
177
root 11.1031 16.2309 -3.29245 29.0943 -19.8445 10.0988
lowerback 44.8545 -3.33171 12.826
upperback 14.547 0.875249 -0.121422
thorax -3.98887 0.784363 -6.89152
lowerneck -9.88282 -6.82423 -4.52861
upperneck 10.1178 -9.40313 7.90617
head 5.25991 -4.24746 2.46141
rclavicle -7.95139e-014 -4.08502e-014
rhumerus 28.5283 24.7781 -42.4839
rradius 48.1419
rwrist -11.63
rhand -24.2451 29.1444
rfingers 7.12502
rthumb 2.24066 -0.823543
lclavicle -7.95139e-014 -4.08502e-014
lhumerus -20.8235 -6.10039 87.6259
lradius 71.9075
lwrist 42.9104
lhand -21.0725 14.302
lfingers 7.12502
lthumb 5.30434 44.2156
rfemur -72.5549 0.290459 2.29521
rtibia 56.6153
rfoot -12.8047 -11.4369
rtoes -7.49509
lfemur -68.1301 11.1236 -45.577
ltibia 51.4922
lfoot -14.5882 6.90909
ltoes -0.455094
178
root 11.0923 16.2643 -3.29985 28.8775 -20.569 9.58787
lowerback 44.4766 -2.83969 11.8359
upperback 14.7142 0.970933 -0.07543
thorax -3.75628 0.801973 -6.3971
lowerneck -10.2555 -6.70644 -4.91338
upperneck 10.6578 -9.246 8.14904
head 5.51039 -4.14855 2.59475
rclavicle 5.40694e-014 -5.61567e-014
rhumerus 29.0702 25.7401 -42.4284
rradius 48.7226
rwrist -10.8344
rhand -25.0083 29.317
rfingers 7.12502
rthumb 1.50351 -0.657482
lclavicle 5.40694e-014 -5.61567e-014
lhumerus -20.7728 -5.00893 87.4765
lradius 71.8472
lwrist 42.8372
lhand -20.7276 14.6125
lfingers 7.12502
lthumb 5.63738 44.5175
rfemur -72.1794 1.13136 2.5515
rtibia 56.0618
rfoot -12.5273 -11.2688
rtoes -7.61268
lfemur -67.7554 11.9534 -45.2567
ltibia 51.1198
lfoot -14.5808 7.06451
ltoes -0.89532
179
root 11.1399 16.3084 -3.27506 27.7735 -18.5942 10.767
lowerback 43.6577 -4.53747 13.1025
upperback 14.8706 -0.577035 -0.238338
thorax -3.54746 0.174259 -6.60547
lowerneck -10.2417 -6.46266 -5.13622
upperneck 10.5318 -8.91589 8.41851
head 5.46949 -3.98513 2.74604
rclavicle 1.90833e-014 5.01931e-014
rhumerus 29.4716 26.7346 -42.3137
rradius 49.0452
rwrist -9.81545
rhand -26.184 29.5126
rfingers 7.12502
rthumb 0.368018 -0.466857
lclavicle 1.90833e-014 5.01931e-014
lhumerus -20.7652 -4.23263 87.4035
lradius 71.7461
lwrist 42.6841
lhand -20.5115 15.4887
lfingers 7.12502
lthumb 5.84599 45.388
rfemur -70.2594 -0.888384 2.3177
rtibia 55.659
rfoot -12.5552 -11.2719
rtoes -9.0861
lfemur -65.7393 9.95081 -45.0346
ltibia 50.4858
lfoot -14.3638 7.28957
ltoes -1.03195
180
root 11.1051 16.3255 -3.28985 28.0783 -20.6878 9.75725
lowerback 43.4618 -2.80322 11.0971
upperback 14.9152 0.591163 -0.0701532
thorax -3.37161 0.624111 -5.89293
lowerneck -10.1074 -6.29153 -5.45512
upperneck 10.1086 -8.68791 8.96683
head 5.3394 -3.86729 2.99554
rclavicle 2.8625e-014 4.94974e-014
rhumerus 29.391 27.3562 -42.2038
rradius 49.4219
rwrist -9.32908
rhand -26.6142 29.7624
rfingers 7.12502
rthumb -0.0474228 -0.217349
lclavicle 2.8625e-014 4.94974e-014
lhumerus -20.6385 -3.94321 87.5264
lradius 71.5352
lwrist 42.49
lhand -20.3277 15.4212
lfingers 7.12502
lthumb 6.02348 45.3155
rfemur -70.7598 1.04936 2.65976
rtibia 55.001
rfoot -11.8347 -11.026
rtoes -10.8602
lfemur -66.4056 11.973 -44.9803
ltibia 50.2118
lfoot -14.3296 7.40693
ltoes -0.357163
